<svg width="50" height="50" viewBox="0 0 50 50" fill="none" xmlns="http://www.w3.org/2000/svg">
<path d="M0 38.5496H5.6391V49.9999H3.00752C1.34651 49.9999 0 48.6329 0 46.9465V38.5496Z" fill="#53B8EC"/>
<path d="M5.63916 44.2748H20.6768V50H5.63916V44.2748Z" fill="#53B8EC"/>
<path d="M50 11.4504L44.3609 11.4504L44.3609 -4.26786e-06L46.9925 -4.50143e-06C48.6535 -4.64886e-06 50 1.36706 50 3.05343L50 11.4504Z" fill="#53B8EC"/>
<path d="M44.3608 5.72522L29.3232 5.72522L29.3232 2.85144e-05L44.3608 2.71797e-05L44.3608 5.72522Z" fill="#53B8EC"/>
<path d="M20.6768 5.72522L5.63916 5.72522L5.63916 2.85144e-05L20.6768 2.71797e-05L20.6768 5.72522Z" fill="#53B8EC"/>
<path d="M44.3608 38.5496H49.9999V46.9465C49.9999 48.6329 48.6534 49.9999 46.9924 49.9999H44.3608V38.5496Z" fill="#53B8EC"/>
<path d="M29.3232 44.2748H44.3608V50H29.3232V44.2748Z" fill="#53B8EC"/>
<path d="M22.1804 0H27.8195V50H22.1804V0Z" fill="#53B8EC" fill-opacity="0.05"/>
</svg>
