<svg width="332" height="91" viewBox="0 0 332 91" fill="none" xmlns="http://www.w3.org/2000/svg">
<rect x="161.815" width="170.185" height="90.2073" fill="#0872B6"/>
<rect x="2.32493" y="2.32493" width="327.35" height="85.5574" stroke="#0872B6" stroke-width="4.64986"/>
<path d="M32.6159 30.2661C32.6159 31.5607 33.5533 32.5427 34.8925 32.5427C36.2316 32.5427 37.1691 31.5607 37.1691 30.2661C37.1691 28.9716 36.2316 27.9896 34.8925 27.9896C33.5533 27.9896 32.6159 28.9716 32.6159 30.2661ZM36.0084 37.2744H33.7765V64.504C33.7765 65.3968 33.3301 65.8431 32.5266 65.8431H27.9735V67.8072H33.1516C34.9371 67.8072 36.0084 66.7359 36.0084 64.8611V37.2744ZM42.4221 43.5238L44.6094 44.1488C45.4129 40.8901 47.7341 38.7028 51.7516 38.7028C55.7691 38.7028 57.9564 40.8901 57.9564 44.5951V46.47H49.7429C45.279 46.47 41.7972 48.5233 41.7972 52.8087C41.7972 57.094 45.279 59.5045 49.8321 59.5045C54.2067 59.5045 56.3047 57.585 57.5993 55.4423H58.0456V58.8795H60.1883V44.6844C60.1883 39.6849 57.1082 36.6495 51.7516 36.6495C46.395 36.6495 43.4488 39.6849 42.4221 43.5238ZM44.0291 52.8087C44.0291 49.8625 46.5289 48.4341 49.7429 48.4341H57.9564V49.059C57.9564 54.4157 54.7424 57.5404 49.9214 57.5404C46.5289 57.5404 44.0291 55.7548 44.0291 52.8087ZM69.3898 37.2744H67.2471V58.8795H69.4791V45.1754C69.4791 41.1133 71.5771 39.2385 74.9696 39.2385H78.5854V37.1851H75.2821C72.2913 37.1851 70.729 38.0333 69.8362 39.9974H69.3898V37.2744ZM80.5529 47.8984C80.5529 54.4603 84.9275 59.5045 91.668 59.5045C97.4264 59.5045 99.8815 56.3351 101.355 53.2997L99.2119 52.4515C97.962 55.2638 95.864 57.4511 91.668 57.4511C86.6238 57.4511 83.1866 54.1032 82.8742 48.568H101.667V47.1395C101.667 40.533 97.3371 36.6495 91.3555 36.6495C85.1507 36.6495 80.5529 41.5151 80.5529 47.8984ZM82.8742 46.6039C83.4098 41.6936 86.8024 38.7028 91.3555 38.7028C95.9533 38.7028 99.1673 41.4258 99.3458 46.6039H82.8742ZM127.751 27.6325H125.519V41.3365H125.073C123.823 39.0153 121.323 36.6495 116.413 36.6495C110.476 36.6495 105.967 41.158 105.967 48.077C105.967 54.996 110.476 59.5045 116.413 59.5045C121.323 59.5045 123.823 57.1386 125.162 54.6835H125.608V58.8795H127.751V27.6325ZM116.815 38.7028C121.903 38.7028 125.519 42.4079 125.519 48.077C125.519 53.7461 121.903 57.4511 116.815 57.4511C111.726 57.4511 108.289 53.8353 108.289 48.077C108.289 42.3186 111.726 38.7028 116.815 38.7028Z" fill="#0872B6"/>
<path d="M193.806 48.077C193.806 54.7728 198.716 59.5045 205.01 59.5045C210.769 59.5045 214.295 55.8441 215.143 51.2909L212.911 50.8446C212.242 54.6388 209.653 57.4511 205.01 57.4511C199.966 57.4511 196.127 53.4782 196.127 48.077C196.127 42.6757 199.922 38.7028 204.966 38.7028C209.251 38.7028 212.287 41.3365 212.778 45.2647L215.01 44.8183C214.385 40.4438 210.59 36.6495 204.966 36.6495C198.716 36.6495 193.806 41.3812 193.806 48.077ZM240.062 58.8795V37.2744H237.83V48.077C237.83 54.2371 234.303 57.2725 229.705 57.2725C225.554 57.2725 222.831 55.2191 222.831 50.3089V37.2744H220.599V50.4874C220.599 56.5137 224.706 59.3259 229.259 59.3259C233.991 59.3259 236.312 57.1832 237.473 55.0406H237.919V58.8795H240.062ZM249.514 37.2744H247.371V58.8795H249.603V45.1754C249.603 41.1133 251.701 39.2385 255.094 39.2385H258.709V37.1851H255.406C252.415 37.1851 250.853 38.0333 249.96 39.9974H249.514V37.2744ZM265.599 37.2744H263.457V58.8795H265.689V45.1754C265.689 41.1133 267.787 39.2385 271.179 39.2385H274.795V37.1851H271.492C268.501 37.1851 266.939 38.0333 266.046 39.9974H265.599V37.2744ZM297.723 37.2744L289.688 56.0226H289.241L281.206 37.2744H278.662L288.304 59.0134L284.197 67.8072H286.697L300.267 37.2744H297.723Z" fill="#FAFAFA"/>
</svg>
